<?xml version="1.0" standalone="no"?>
<!DOCTYPE svg PUBLIC "-//W3C//DTD SVG 20010904//EN"
 "http://www.w3.org/TR/2001/REC-SVG-20010904/DTD/svg10.dtd">
<svg version="1.0" xmlns="http://www.w3.org/2000/svg"
 width="314.000000pt" height="122.000000pt" viewBox="0 0 314.000000 122.000000"
 preserveAspectRatio="xMidYMid meet">

<g transform="translate(0.000000,122.000000) scale(0.100000,-0.100000)"
fill="#000000" stroke="none">
<path d="M0 610 l0 -610 1570 0 1570 0 0 610 0 610 -1570 0 -1570 0 0 -610z
m540 248 c7 -24 23 -63 36 -87 32 -57 32 -85 2 -75 -37 11 -73 31 -107 60 -24
20 -30 32 -25 48 10 33 55 96 70 96 7 0 18 -19 24 -42z m-166 -53 c53 -82 166
-155 242 -155 19 0 22 6 26 57 4 48 10 61 37 85 29 26 37 28 116 28 l85 0 -20
-40 c-17 -33 -20 -59 -20 -160 0 -86 -4 -131 -15 -158 -35 -83 -101 -121 -209
-122 -65 0 -71 -2 -116 -40 -51 -43 -67 -46 -136 -29 -52 13 -130 78 -122 100
3 9 30 21 60 28 30 6 72 16 92 22 l38 11 -47 46 c-70 69 -100 139 -100 232 1
75 23 150 44 150 6 0 26 -25 45 -55z m1266 -9 c16 -20 9 -56 -12 -70 -40 -24
-80 44 -42 71 23 17 39 16 54 -1z m-105 -46 l0 -35 -57 -3 -58 -3 0 -164 0
-165 -45 0 -45 0 0 165 0 164 -57 3 c-52 3 -58 5 -61 26 -8 52 -4 53 165 50
l158 -3 0 -35z m1030 10 c0 -17 -6 -26 -20 -28 -20 -4 -45 -28 -45 -44 0 -4
14 -8 30 -8 27 0 30 -3 30 -30 0 -25 -4 -30 -25 -30 l-25 0 0 -120 0 -120 -45
0 -45 0 0 120 c0 113 -1 120 -20 120 -16 0 -20 7 -20 30 0 22 5 30 18 30 13 0
21 13 29 43 14 51 39 67 98 64 35 -2 40 -5 40 -27z m215 1 c0 -25 -4 -30 -27
-33 -20 -2 -29 -9 -31 -25 -3 -20 1 -23 27 -23 28 0 31 -3 31 -30 0 -27 -3
-30 -30 -30 l-30 0 0 -120 0 -120 -45 0 -45 0 0 120 c0 113 -1 120 -20 120
-16 0 -20 7 -20 30 0 23 5 30 19 30 20 0 31 18 31 50 0 31 47 60 96 60 42 0
44 -1 44 -29z m-804 -114 c38 -41 50 -104 33 -171 -23 -90 -110 -126 -181 -75
l-28 20 0 -71 0 -70 -40 0 -40 0 0 200 0 200 40 0 c34 0 40 -3 40 -22 l0 -21
23 20 c30 28 46 33 87 28 23 -3 45 -15 66 -38z m294 25 c72 -36 101 -132 66
-216 -45 -109 -217 -112 -266 -4 -66 146 63 289 200 220z m-620 -142 l0 -150
-40 0 -40 0 0 150 0 150 40 0 40 0 0 -150z"/>
<path d="M724 729 c-10 -17 13 -36 27 -22 12 12 4 33 -11 33 -5 0 -12 -5 -16
-11z"/>
<path d="M1825 595 c-19 -18 -25 -35 -25 -65 0 -44 33 -90 65 -90 32 0 65 46
65 90 0 44 -33 90 -65 90 -9 0 -27 -11 -40 -25z"/>
<path d="M2156 598 c-9 -12 -16 -43 -16 -68 0 -57 22 -90 59 -90 42 0 65 32
65 90 0 34 -6 56 -19 70 -24 27 -70 26 -89 -2z"/>
</g>
</svg>
